<svg xmlns="http://www.w3.org/2000/svg" width="25.938" height="24.625" viewBox="0 0 25.938 24.625">
  <defs>
    <style>
      .cls-1 {
        fill: #4e84fd;
        fill-rule: evenodd;
      }
    </style>
  </defs>
  <path id="Icon" class="cls-1" d="M592.488,696.553a1.669,1.669,0,0,0-.252.527,3.044,3.044,0,0,0-.084.81,2.154,2.154,0,0,0,.24.989,2.234,2.234,0,0,0,.673.8,4.5,4.5,0,0,0,4.681,0,2.247,2.247,0,0,0,.655-0.8,2.634,2.634,0,0,0,.234-1.17,2.176,2.176,0,0,0-.385-1.247,3.215,3.215,0,0,0-.83-0.72v-0.051q0.192-.167.361-0.334a2,2,0,0,0,.578-1.517,2.34,2.34,0,0,0-.867-1.916,3.213,3.213,0,0,0-2.1-.668,3.178,3.178,0,0,0-2.094.668,2.342,2.342,0,0,0-.631.8,2.58,2.58,0,0,0-.234,1.138,2.277,2.277,0,0,0,.3,1.171,2.992,2.992,0,0,0,.637.655v0.052A3.142,3.142,0,0,0,592.488,696.553Zm2.058-2.725a0.9,0.9,0,0,1,.246-0.637,0.8,0.8,0,0,1,.608-0.263,0.787,0.787,0,0,1,.6.263,0.9,0.9,0,0,1,.247.637v0.3a0.893,0.893,0,0,1-.247.636,0.785,0.785,0,0,1-.6.264,0.8,0.8,0,0,1-.608-0.264,0.9,0.9,0,0,1-.246-0.636v-0.3Zm0,3.484a0.9,0.9,0,0,1,.246-0.637,0.8,0.8,0,0,1,.608-0.263,0.787,0.787,0,0,1,.6.263,0.9,0.9,0,0,1,.247.637v0.423a0.9,0.9,0,0,1-.247.637,0.784,0.784,0,0,1-.6.263,0.8,0.8,0,0,1-.608-0.263,0.9,0.9,0,0,1-.246-0.637v-0.423Zm3.434-9.941a1.3,1.3,0,0,0,1.3-1.3v-2.591a1.3,1.3,0,1,0-2.592,0v2.591A1.3,1.3,0,0,0,597.98,687.371Zm-2.592-2.591h-7.776v2.591h7.776V684.78Zm-10.981,9.538v0.248h2.13V694.2a0.906,0.906,0,0,1,.249-0.651,0.794,0.794,0,0,1,.6-0.261h0.158a0.793,0.793,0,0,1,.6.267,0.916,0.916,0,0,1,.249.645,1.735,1.735,0,0,1-.655,1.368l-2.4,2.034a2.538,2.538,0,0,0-.756.984,3.413,3.413,0,0,0-.212,1.27v0.47h6.475v-2.189h-3.183l1.319-.991a4.963,4.963,0,0,0,1.634-1.824,2.9,2.9,0,0,0,.218-1.173,2.816,2.816,0,0,0-.811-2.085,2.949,2.949,0,0,0-2.155-.808h-0.375A2.895,2.895,0,0,0,584.407,694.318Zm17.461-9.538h-1.3v2.591h1.3v16.848H581.132V687.371h1.3V684.78h-1.3a2.591,2.591,0,0,0-2.592,2.591v16.848a2.591,2.591,0,0,0,2.592,2.592h20.736a2.592,2.592,0,0,0,2.592-2.592V687.371A2.592,2.592,0,0,0,601.868,684.78Zm-16.848,2.591a1.3,1.3,0,0,0,1.3-1.3v-2.591a1.3,1.3,0,1,0-2.592,0v2.591A1.3,1.3,0,0,0,585.02,687.371Z" transform="translate(-578.531 -682.188)"/>
</svg>
